<svg width="40" height="42" viewBox="0 0 40 42" fill="none" xmlns="http://www.w3.org/2000/svg">
<path d="M27.25 17.875C27.25 18.8021 26.9751 19.7084 26.46 20.4792C25.9449 21.2501 25.2129 21.8509 24.3563 22.2057C23.4998 22.5605 22.5573 22.6533 21.648 22.4724C20.7387 22.2916 19.9035 21.8451 19.2479 21.1896C18.5924 20.534 18.1459 19.6988 17.9651 18.7895C17.7842 17.8802 17.877 16.9377 18.2318 16.0812C18.5866 15.2246 19.1874 14.4926 19.9583 13.9775C20.7291 13.4624 21.6354 13.1875 22.5625 13.1875C23.8041 13.1926 24.9934 13.6882 25.8714 14.5661C26.7493 15.4441 27.2449 16.6334 27.25 17.875ZM39.75 3.8125V38.1875C39.75 39.0163 39.4208 39.8112 38.8347 40.3972C38.2487 40.9833 37.4538 41.3125 36.625 41.3125H8.5C7.6712 41.3125 6.87634 40.9833 6.29029 40.3972C5.70424 39.8112 5.375 39.0163 5.375 38.1875V34.2812H2.25C1.8356 34.2812 1.43817 34.1166 1.14515 33.8236C0.85212 33.5306 0.6875 33.1332 0.6875 32.7188C0.6875 32.3043 0.85212 31.9069 1.14515 31.6139C1.43817 31.3209 1.8356 31.1562 2.25 31.1562H5.375V26.4688H2.25C1.8356 26.4688 1.43817 26.3041 1.14515 26.0111C0.85212 25.7181 0.6875 25.3207 0.6875 24.9062C0.6875 24.4918 0.85212 24.0944 1.14515 23.8014C1.43817 23.5084 1.8356 23.3438 2.25 23.3438H5.375V18.6562H2.25C1.8356 18.6562 1.43817 18.4916 1.14515 18.1986C0.85212 17.9056 0.6875 17.5082 0.6875 17.0938C0.6875 16.6793 0.85212 16.2819 1.14515 15.9889C1.43817 15.6959 1.8356 15.5312 2.25 15.5312H5.375V10.8438H2.25C1.8356 10.8438 1.43817 10.6791 1.14515 10.3861C0.85212 10.0931 0.6875 9.69565 0.6875 9.28125C0.6875 8.86685 0.85212 8.46942 1.14515 8.1764C1.43817 7.88337 1.8356 7.71875 2.25 7.71875H5.375V3.8125C5.375 2.9837 5.70424 2.18884 6.29029 1.60279C6.87634 1.01674 7.6712 0.6875 8.5 0.6875H36.625C37.4538 0.6875 38.2487 1.01674 38.8347 1.60279C39.4208 2.18884 39.75 2.9837 39.75 3.8125ZM33.1875 27.875C31.8047 26.0188 29.9595 24.5575 27.8359 23.6367C28.9978 22.5738 29.8113 21.1845 30.1698 19.6511C30.5284 18.1177 30.4151 16.5118 29.8449 15.0439C29.2748 13.576 28.2743 12.3146 26.9748 11.4253C25.6752 10.5359 24.1372 10.06 22.5625 10.06C20.9878 10.06 19.4498 10.5359 18.1502 11.4253C16.8507 12.3146 15.8502 13.576 15.2801 15.0439C14.7099 16.5118 14.5966 18.1177 14.9552 19.6511C15.3137 21.1845 16.1272 22.5738 17.2891 23.6367C15.1655 24.5575 13.3203 26.0188 11.9375 27.875C11.6889 28.2065 11.5821 28.6232 11.6407 29.0335C11.6993 29.4437 11.9185 29.8139 12.25 30.0625C12.5184 30.2693 12.8487 30.3794 13.1875 30.375C13.4301 30.375 13.6693 30.3185 13.8863 30.21C14.1032 30.1016 14.292 29.9441 14.4375 29.75C15.3835 28.4886 16.6102 27.4648 18.0205 26.7597C19.4307 26.0546 20.9858 25.6875 22.5625 25.6875C24.1392 25.6875 25.6943 26.0546 27.1045 26.7597C28.5148 27.4648 29.7415 28.4886 30.6875 29.75C30.9393 30.0772 31.3089 30.2931 31.7176 30.3515C32.1264 30.4098 32.5417 30.3061 32.875 30.0625C33.0392 29.9394 33.1774 29.7851 33.282 29.6086C33.3865 29.432 33.4553 29.2366 33.4843 29.0335C33.5133 28.8303 33.502 28.6235 33.4511 28.4247C33.4002 28.2259 33.3106 28.0392 33.1875 27.875Z" fill="#00875F"/>
</svg>
